<?xml version="1.0" encoding="utf-8"?>
<!-- Generator: Adobe Illustrator 23.0.4, SVG Export Plug-In . SVG Version: 6.00 Build 0)  -->
<svg version="1.1" id="Layer_1" xmlns="http://www.w3.org/2000/svg" xmlns:xlink="http://www.w3.org/1999/xlink" x="0px" y="0px"
	 viewBox="0 0 124 20" style="enable-background:new 0 0 124 20;" xml:space="preserve">
<style type="text/css">
	.st0{fill:#000000;}
</style>
<g>
	<path class="st0" d="M10.4,3.4c-0.3-0.1-0.7-0.1-1.1-0.1c-0.9,0-1.5,0.2-2,0.8c-0.2,0.3-0.4,0.8-0.4,2v0.4h4v3h-4v10.1H3.4V9.5H0
		v-3h3.4V6c0-2.1,0.5-3.4,1.4-4.3s2.3-1.5,4.1-1.5c0.7,0,1.3,0.1,2.1,0.2L10.4,3.4z"/>
	<path class="st0" d="M25.6,19.6h-3.4v-1.1c-1.1,0.9-2.3,1.3-3.6,1.3c-1.9,0-3.8-0.9-4.9-2.2c-1-1.2-1.7-2.8-1.7-4.6
		c0-3.9,2.9-6.8,6.4-6.8c1.5,0,2.8,0.5,3.8,1.3v-1h3.4V19.6z M22.1,11.1c-0.7-1-1.9-1.6-3.2-1.6c-2.1,0-3.4,1.7-3.4,3.6
		c0,2.1,1.5,3.6,3.5,3.6c1.3,0,2.5-0.6,3.2-1.6v-4H22.1z"/>
	<path class="st0" d="M37.4,9.6c-0.2-0.1-0.8-0.1-1.3-0.1c-1.5,0-2.8,1.1-3.2,1.9v8.2h-3.5V6.5h3.4v1.3c0.8-1,2.2-1.6,3.8-1.6
		c0.5,0,0.8,0.1,1.2,0.1L37.4,9.6z"/>
	<path class="st0" d="M40.2,19.6V6.5h3.4v1.1c1-0.9,2.3-1.3,3.5-1.3c1.8,0,3.4,0.8,4.4,2.1c1.1-1.1,2.7-2.1,4.6-2.1
		c1.8,0,3.5,0.8,4.6,2.1c0.8,1,1.3,2.4,1.3,4.3v6.9h-3.5v-7.1c0-1.2-0.2-1.8-0.6-2.2c-0.5-0.6-1.3-0.8-2-0.8c-1.5,0-2.7,1.1-3.2,1.7
		c0.1,0.4,0.1,0.9,0.1,1.5v6.9h-3.5v-7.1c0-1.2-0.2-1.8-0.6-2.2c-0.5-0.6-1.3-0.8-2-0.8c-1.5,0-2.6,1-3,1.6v8.5H40.2z"/>
	<path class="st0" d="M78.1,19.6h-3.4v-1.1c-1.1,0.9-2.3,1.3-3.6,1.3c-1.9,0-3.8-0.9-4.9-2.2c-1-1.2-1.7-2.8-1.7-4.6
		c0-3.9,2.9-6.8,6.4-6.8c1.5,0,2.8,0.5,3.8,1.3v-1h3.4C78.1,6.5,78.1,19.6,78.1,19.6z M74.6,11.1c-0.7-1-1.9-1.6-3.2-1.6
		c-2.1,0-3.4,1.7-3.4,3.6c0,2.1,1.5,3.6,3.5,3.6c1.3,0,2.5-0.6,3.2-1.6L74.6,11.1L74.6,11.1z"/>
	<path class="st0" d="M92.3,8.7l-6.3,8h6.9v3H81.2v-2.2l6.3-8h-5.7v-3h10.5V8.7z"/>
	<path class="st0" d="M101.4,6.2c4,0,7,3,7,6.8s-3,6.8-7,6.8s-7-3-7-6.8S97.4,6.2,101.4,6.2z M101.4,16.6c2.1,0,3.5-1.6,3.5-3.6
		s-1.4-3.6-3.5-3.6S97.9,11,97.9,13S99.3,16.6,101.4,16.6z"/>
	<path class="st0" d="M111,19.6V6.5h3.4v1.1c1-0.8,2.2-1.3,3.7-1.3c1.8,0,3.5,0.8,4.5,2.1c0.9,1,1.3,2.3,1.3,4.6v6.7h-3.5v-6.9
		c0-1.3-0.3-2-0.8-2.5s-1.2-0.7-2-0.7c-1.5,0-2.7,0.9-3.2,1.6v8.5H111V19.6z"/>
</g>
</svg>
