<svg width="60" height="60" viewBox="0 0 60 60" fill="none" xmlns="http://www.w3.org/2000/svg">
<path d="M53.3932 9.94167L43.866 0.414283C43.6007 0.148969 43.2411 0 42.8658 0H7.60762C6.82657 0 6.19336 0.633211 6.19336 1.41426V58.5857C6.19336 59.3668 6.82657 60 7.60762 60H52.3932C53.1745 60 53.8075 59.3668 53.8075 58.5857V10.9416C53.8075 10.5666 53.6585 10.207 53.3932 9.94167ZM44.2801 4.82866L48.9788 9.52758H44.2801V4.82866ZM9.02188 2.82852H41.4518V4.76379H9.02188V2.82852ZM50.979 57.1715H9.02188V7.5923H41.4518V10.9418C41.4518 11.7229 42.0848 12.3561 42.866 12.3561H50.979V57.1715Z" fill="black"/>
<path d="M38.0354 27.7286C37.3537 27.7241 36.682 27.7577 36.019 27.7954C35.7746 27.8118 35.5327 27.8329 35.2909 27.8538C35.0432 27.5974 34.8037 27.3325 34.5719 27.0615C33.0973 25.3159 31.9067 23.3363 30.9365 21.2792C31.1941 20.2853 31.4002 19.248 31.5247 18.1707C31.7519 16.2045 31.83 13.9638 31.0932 12.0892C30.8389 11.4422 30.1606 10.6546 29.378 11.0468C28.4784 11.4979 28.2253 12.7758 28.1519 13.6817C28.0929 14.4139 28.1342 15.148 28.2572 15.8679C28.3824 16.5928 28.584 17.281 28.8034 17.9684C29.0082 18.5986 29.2339 19.2238 29.48 19.8433C29.3239 20.3309 29.1581 20.8101 28.9841 21.277C28.5783 22.3411 28.1395 23.352 27.7175 24.3244C27.495 24.8066 27.2772 25.2786 27.0641 25.74C26.3898 27.2212 25.6578 28.6752 24.8364 30.0808C22.9199 30.7568 21.2002 31.5405 19.772 32.4615C19.0058 32.9565 18.3291 33.4941 17.7654 34.0837C17.2333 34.6404 16.6925 35.3628 16.6452 36.1625C16.6186 36.6139 16.7973 37.052 17.1671 37.3198C17.6757 37.6997 18.3496 37.6745 18.9397 37.5508C20.8725 37.1453 22.3567 35.4839 23.6207 34.0836C24.4913 33.119 25.4822 31.8943 26.5188 30.4131C26.521 30.4097 26.5233 30.4063 26.5257 30.4029C28.3036 29.8517 30.2385 29.3863 32.292 29.0443C33.2301 28.8887 34.1931 28.7614 35.1753 28.672C35.8661 29.319 36.6124 29.9081 37.4267 30.4001C38.0608 30.7902 38.7353 31.1196 39.4413 31.3654C40.1552 31.5986 40.8735 31.7891 41.6151 31.9096C41.9896 31.9631 42.3726 31.9874 42.7639 31.9727C43.6371 31.9397 44.8905 31.6048 44.9728 30.5453C44.998 30.2207 44.9281 29.9364 44.788 29.6871C44.101 28.4627 41.7273 28.078 40.6383 27.9049C39.7798 27.7686 38.9035 27.7279 38.0354 27.7286ZM23.8815 31.6314C23.4724 32.265 23.078 32.8349 22.7063 33.3363C21.7961 34.5748 20.7565 36.0458 19.2514 36.5958C18.9655 36.7003 18.5891 36.8082 18.1924 36.7848C17.839 36.764 17.4905 36.6083 17.5065 36.2068C17.5145 35.9968 17.6172 35.7288 17.7749 35.4656C17.9474 35.1769 18.1611 34.9121 18.3924 34.6687C18.8882 34.1479 19.515 33.6431 20.2361 33.1756C21.342 32.4581 22.6624 31.8123 24.1341 31.236C24.0495 31.3699 23.965 31.503 23.8815 31.6314ZM29.0146 15.7427C28.9011 15.0801 28.884 14.4082 28.9537 13.7622C28.9884 13.4392 29.0542 13.1239 29.1495 12.8284C29.2302 12.5776 29.4044 11.9655 29.6824 11.8869C30.1406 11.7571 30.2814 12.7409 30.3333 13.0192C30.6286 14.6024 30.3684 16.3631 30.0141 17.9161C29.9577 18.1632 29.8949 18.4062 29.8306 18.6483C29.7208 18.3464 29.6162 18.0436 29.5198 17.7393C29.3124 17.0746 29.1227 16.4021 29.0146 15.7427ZM32.1605 28.241C30.4389 28.5201 28.8012 28.8857 27.2617 29.3173C27.4471 29.2655 28.2941 27.6602 28.4831 27.327C29.3733 25.759 30.1015 24.1134 30.6248 22.3871C31.5488 24.2145 32.6702 25.9627 34.0479 27.5188C34.1748 27.66 34.3038 27.7995 34.435 27.9374C33.663 28.0205 32.9033 28.1218 32.1605 28.241ZM43.8035 30.4461C43.7405 30.7864 43.0135 30.981 42.6743 31.0346C41.6719 31.1922 40.6114 31.0661 39.6519 30.7438C38.9937 30.5228 38.3587 30.2219 37.7555 29.8598C37.1559 29.4976 36.5949 29.0714 36.0705 28.6015C36.7171 28.5627 37.3716 28.5372 38.0293 28.5497C38.687 28.5563 39.3499 28.5894 40.0046 28.6749C41.2323 28.8118 42.6081 29.2332 43.5745 30.0299C43.7648 30.187 43.8255 30.3258 43.8035 30.4461Z" fill="black"/>
<path d="M29.9058 44.0103H26.7744V53.0575H29.7016C31.2073 53.0575 32.376 52.6491 33.2072 51.8322C34.0384 51.0154 34.4542 49.8521 34.4542 48.342C34.4542 46.9395 34.059 45.8667 33.2691 45.1241C32.479 44.3815 31.3579 44.0103 29.9058 44.0103ZM31.3972 50.4059C31.0506 50.8372 30.506 51.0527 29.7634 51.0527H29.2188V45.9846H29.9303C30.5988 45.9846 31.097 46.1846 31.4249 46.5848C31.7528 46.9851 31.9168 47.5996 31.9168 48.429C31.917 49.3158 31.7437 49.9748 31.3972 50.4059Z" fill="black"/>
<path d="M24.4723 44.7591C23.8988 44.2599 23.0407 44.0103 21.898 44.0103H18.7666V53.0575H21.211V50.0561H21.898C22.9952 50.0561 23.8419 49.7808 24.4383 49.23C25.0344 48.6794 25.3325 47.8985 25.3325 46.8878C25.3323 45.9678 25.0457 45.2582 24.4723 44.7591ZM22.5323 47.7543C22.3156 47.9606 22.0237 48.0637 21.6566 48.0637H21.211V45.9846H21.8423C22.5189 45.9846 22.8572 46.2898 22.8572 46.9004C22.857 47.2632 22.7488 47.548 22.5323 47.7543Z" fill="black"/>
<path d="M36.0762 53.0575H38.4834V49.6601H41.1939V47.6985H38.4834V45.9719H41.423V44.0103H36.0762V53.0575Z" fill="black"/>
</svg>
